M48
;DRILL file {KiCad 4.0.2-stable} date Wed 21 Sep 2016 02:19:26 PM PDT
;FORMAT={-:-/ absolute / inch / decimal}
FMAT,2
INCH,TZ
T1C0.030
T2C0.083
%
G90
G05
M72
T1
X4.6125Y-4.125
X4.6125Y-4.375
X4.6125Y-4.875
X4.6125Y-5.125
X4.9875Y-4.125
X4.9875Y-4.375
X4.9875Y-4.875
X4.9875Y-5.125
T2
X3.6795Y-4.4
X3.6795Y-5.1
X4.1205Y-4.6047
X4.1205Y-5.3047
X4.2189Y-4.4
X4.2189Y-5.1
X5.3811Y-4.4
X5.3811Y-5.1
X5.4795Y-4.1953
X5.4795Y-4.8953
X5.9205Y-4.4
X5.9205Y-5.1
T0
M30
