G04 #@! TF.FileFunction,Copper,L2,Bot,Signal*
%FSLAX46Y46*%
G04 Gerber Fmt 4.6, Leading zero omitted, Abs format (unit mm)*
G04 Created by KiCad (PCBNEW 4.0.2-stable) date Wed 21 Sep 2016 02:18:44 PM PDT*
%MOMM*%
G01*
G04 APERTURE LIST*
%ADD10C,0.100000*%
%ADD11C,0.300000*%
%ADD12C,4.000000*%
%ADD13C,1.524000*%
%ADD14C,0.500000*%
G04 APERTURE END LIST*
D10*
D11*
X152922143Y-138045000D02*
X152207857Y-138045000D01*
X153065000Y-138473571D02*
X152565000Y-136973571D01*
X152065000Y-138473571D01*
X150922143Y-137473571D02*
X150922143Y-138473571D01*
X151565000Y-137473571D02*
X151565000Y-138259286D01*
X151493572Y-138402143D01*
X151350714Y-138473571D01*
X151136429Y-138473571D01*
X150993572Y-138402143D01*
X150922143Y-138330714D01*
X149565000Y-138473571D02*
X149565000Y-136973571D01*
X149565000Y-138402143D02*
X149707857Y-138473571D01*
X149993571Y-138473571D01*
X150136429Y-138402143D01*
X150207857Y-138330714D01*
X150279286Y-138187857D01*
X150279286Y-137759286D01*
X150207857Y-137616429D01*
X150136429Y-137545000D01*
X149993571Y-137473571D01*
X149707857Y-137473571D01*
X149565000Y-137545000D01*
X148850714Y-138473571D02*
X148850714Y-137473571D01*
X148850714Y-136973571D02*
X148922143Y-137045000D01*
X148850714Y-137116429D01*
X148779286Y-137045000D01*
X148850714Y-136973571D01*
X148850714Y-137116429D01*
X147922142Y-138473571D02*
X148065000Y-138402143D01*
X148136428Y-138330714D01*
X148207857Y-138187857D01*
X148207857Y-137759286D01*
X148136428Y-137616429D01*
X148065000Y-137545000D01*
X147922142Y-137473571D01*
X147707857Y-137473571D01*
X147565000Y-137545000D01*
X147493571Y-137616429D01*
X147422142Y-137759286D01*
X147422142Y-138187857D01*
X147493571Y-138330714D01*
X147565000Y-138402143D01*
X147707857Y-138473571D01*
X147922142Y-138473571D01*
X145636428Y-138473571D02*
X145636428Y-136973571D01*
X144993571Y-138402143D02*
X144850714Y-138473571D01*
X144564999Y-138473571D01*
X144422142Y-138402143D01*
X144350714Y-138259286D01*
X144350714Y-138187857D01*
X144422142Y-138045000D01*
X144564999Y-137973571D01*
X144779285Y-137973571D01*
X144922142Y-137902143D01*
X144993571Y-137759286D01*
X144993571Y-137687857D01*
X144922142Y-137545000D01*
X144779285Y-137473571D01*
X144564999Y-137473571D01*
X144422142Y-137545000D01*
X143493570Y-138473571D02*
X143636428Y-138402143D01*
X143707856Y-138330714D01*
X143779285Y-138187857D01*
X143779285Y-137759286D01*
X143707856Y-137616429D01*
X143636428Y-137545000D01*
X143493570Y-137473571D01*
X143279285Y-137473571D01*
X143136428Y-137545000D01*
X143064999Y-137616429D01*
X142993570Y-137759286D01*
X142993570Y-138187857D01*
X143064999Y-138330714D01*
X143136428Y-138402143D01*
X143279285Y-138473571D01*
X143493570Y-138473571D01*
X142136427Y-138473571D02*
X142279285Y-138402143D01*
X142350713Y-138259286D01*
X142350713Y-136973571D01*
X140922142Y-138473571D02*
X140922142Y-137687857D01*
X140993571Y-137545000D01*
X141136428Y-137473571D01*
X141422142Y-137473571D01*
X141564999Y-137545000D01*
X140922142Y-138402143D02*
X141064999Y-138473571D01*
X141422142Y-138473571D01*
X141564999Y-138402143D01*
X141636428Y-138259286D01*
X141636428Y-138116429D01*
X141564999Y-137973571D01*
X141422142Y-137902143D01*
X141064999Y-137902143D01*
X140922142Y-137830714D01*
X140422142Y-137473571D02*
X139850713Y-137473571D01*
X140207856Y-136973571D02*
X140207856Y-138259286D01*
X140136428Y-138402143D01*
X139993570Y-138473571D01*
X139850713Y-138473571D01*
X139350713Y-138473571D02*
X139350713Y-137473571D01*
X139350713Y-136973571D02*
X139422142Y-137045000D01*
X139350713Y-137116429D01*
X139279285Y-137045000D01*
X139350713Y-136973571D01*
X139350713Y-137116429D01*
X138422141Y-138473571D02*
X138564999Y-138402143D01*
X138636427Y-138330714D01*
X138707856Y-138187857D01*
X138707856Y-137759286D01*
X138636427Y-137616429D01*
X138564999Y-137545000D01*
X138422141Y-137473571D01*
X138207856Y-137473571D01*
X138064999Y-137545000D01*
X137993570Y-137616429D01*
X137922141Y-137759286D01*
X137922141Y-138187857D01*
X137993570Y-138330714D01*
X138064999Y-138402143D01*
X138207856Y-138473571D01*
X138422141Y-138473571D01*
X137279284Y-137473571D02*
X137279284Y-138473571D01*
X137279284Y-137616429D02*
X137207856Y-137545000D01*
X137064998Y-137473571D01*
X136850713Y-137473571D01*
X136707856Y-137545000D01*
X136636427Y-137687857D01*
X136636427Y-138473571D01*
X134279284Y-137687857D02*
X134064998Y-137759286D01*
X133993570Y-137830714D01*
X133922141Y-137973571D01*
X133922141Y-138187857D01*
X133993570Y-138330714D01*
X134064998Y-138402143D01*
X134207856Y-138473571D01*
X134779284Y-138473571D01*
X134779284Y-136973571D01*
X134279284Y-136973571D01*
X134136427Y-137045000D01*
X134064998Y-137116429D01*
X133993570Y-137259286D01*
X133993570Y-137402143D01*
X134064998Y-137545000D01*
X134136427Y-137616429D01*
X134279284Y-137687857D01*
X134779284Y-137687857D01*
X133064998Y-138473571D02*
X133207856Y-138402143D01*
X133279284Y-138330714D01*
X133350713Y-138187857D01*
X133350713Y-137759286D01*
X133279284Y-137616429D01*
X133207856Y-137545000D01*
X133064998Y-137473571D01*
X132850713Y-137473571D01*
X132707856Y-137545000D01*
X132636427Y-137616429D01*
X132564998Y-137759286D01*
X132564998Y-138187857D01*
X132636427Y-138330714D01*
X132707856Y-138402143D01*
X132850713Y-138473571D01*
X133064998Y-138473571D01*
X131279284Y-138473571D02*
X131279284Y-137687857D01*
X131350713Y-137545000D01*
X131493570Y-137473571D01*
X131779284Y-137473571D01*
X131922141Y-137545000D01*
X131279284Y-138402143D02*
X131422141Y-138473571D01*
X131779284Y-138473571D01*
X131922141Y-138402143D01*
X131993570Y-138259286D01*
X131993570Y-138116429D01*
X131922141Y-137973571D01*
X131779284Y-137902143D01*
X131422141Y-137902143D01*
X131279284Y-137830714D01*
X130564998Y-138473571D02*
X130564998Y-137473571D01*
X130564998Y-137759286D02*
X130493570Y-137616429D01*
X130422141Y-137545000D01*
X130279284Y-137473571D01*
X130136427Y-137473571D01*
X128993570Y-138473571D02*
X128993570Y-136973571D01*
X128993570Y-138402143D02*
X129136427Y-138473571D01*
X129422141Y-138473571D01*
X129564999Y-138402143D01*
X129636427Y-138330714D01*
X129707856Y-138187857D01*
X129707856Y-137759286D01*
X129636427Y-137616429D01*
X129564999Y-137545000D01*
X129422141Y-137473571D01*
X129136427Y-137473571D01*
X128993570Y-137545000D01*
X127279284Y-137473571D02*
X126922141Y-138473571D01*
X126564999Y-137473571D01*
X125207856Y-138473571D02*
X126064999Y-138473571D01*
X125636427Y-138473571D02*
X125636427Y-136973571D01*
X125779284Y-137187857D01*
X125922142Y-137330714D01*
X126064999Y-137402143D01*
D12*
X93460000Y-111760000D03*
X107160000Y-111760000D03*
X104660000Y-116960000D03*
X93460000Y-129540000D03*
X107160000Y-129540000D03*
X104660000Y-134740000D03*
X150380000Y-129540000D03*
X136680000Y-129540000D03*
X139180000Y-124340000D03*
X150380000Y-111760000D03*
X136680000Y-111760000D03*
X139180000Y-106560000D03*
D13*
X126683000Y-104775000D03*
X126683000Y-111125000D03*
X117157000Y-104775000D03*
X117157000Y-111125000D03*
X126683000Y-123825000D03*
X126683000Y-130175000D03*
X117157000Y-123825000D03*
X117157000Y-130175000D03*
D14*
X117157000Y-104775000D02*
X100445000Y-104775000D01*
X100445000Y-104775000D02*
X93460000Y-111760000D01*
X117157000Y-111125000D02*
X107795000Y-111125000D01*
X107795000Y-111125000D02*
X107160000Y-111760000D01*
X93460000Y-129540000D02*
X93460000Y-129425000D01*
X93460000Y-129425000D02*
X99060000Y-123825000D01*
X99060000Y-123825000D02*
X117157000Y-123825000D01*
X117157000Y-130175000D02*
X107795000Y-130175000D01*
X107795000Y-130175000D02*
X107160000Y-129540000D01*
X150380000Y-129540000D02*
X150380000Y-129425000D01*
X150380000Y-129425000D02*
X140970000Y-120015000D01*
X140970000Y-120015000D02*
X130493000Y-120015000D01*
X130493000Y-120015000D02*
X126683000Y-123825000D01*
X126683000Y-130175000D02*
X136045000Y-130175000D01*
X136045000Y-130175000D02*
X136680000Y-129540000D01*
X126683000Y-130175000D02*
X126683000Y-129857000D01*
X126683000Y-129857000D02*
X127000000Y-129540000D01*
X150380000Y-111760000D02*
X150380000Y-111645000D01*
X150380000Y-111645000D02*
X140970000Y-102235000D01*
X140970000Y-102235000D02*
X129223000Y-102235000D01*
X129223000Y-102235000D02*
X126683000Y-104775000D01*
X126683000Y-111125000D02*
X136045000Y-111125000D01*
X136045000Y-111125000D02*
X136680000Y-111760000D01*
M02*
